<?xml version="1.0" encoding="utf-8"?>
<!-- Generator: Adobe Illustrator 19.1.0, SVG Export Plug-In . SVG Version: 6.00 Build 0)  -->
<!DOCTYPE svg PUBLIC "-//W3C//DTD SVG 1.1//EN" "http://www.w3.org/Graphics/SVG/1.1/DTD/svg11.dtd">
<svg version="1.1" id="Layer_1" xmlns="http://www.w3.org/2000/svg" xmlns:xlink="http://www.w3.org/1999/xlink" x="0px" y="0px"
	 viewBox="0 0 81 81" enable-background="new 0 0 81 81" xml:space="preserve">
<path fill="none" stroke="#0070BB" stroke-miterlimit="10" d="M75.3,42.7c0.3,0.2,0.4,0.5,0.4,0.9V62c0,0.3-0.2,0.6-0.4,0.9
	c-0.2,0.2-0.4,0.2-0.7,0.2c-0.1,0-0.2,0-0.2,0L62,60.5v3.6c0,2.9-2.3,5.2-5.2,5.2H19.9c-2.9,0-5.2-2.3-5.2-5.2V42.5
	c-6.4-2-11-8-11-15c0-8.6,7-15.7,15.7-15.7c8.6,0,15.7,7,15.7,15.7c0,3.2-1,6.1-2.6,8.6h10.2c-1.6-2.5-2.6-5.4-2.6-8.6
	c0-8.6,7-15.7,15.7-15.7s15.7,7,15.7,15.7c0,6.4-3.9,11.9-9.4,14.4V45l12.3-2.6C74.7,42.4,75,42.5,75.3,42.7L75.3,42.7z M55.8,14.1
	c-7.4,0-13.5,6-13.5,13.5c0,7.4,6,13.5,13.5,13.5c7.4,0,13.5-6,13.5-13.5C69.2,20.1,63.2,14.1,55.8,14.1L55.8,14.1z M5.9,27.6
	c0,7.4,6,13.5,13.5,13.5c7.4,0,13.5-6,13.5-13.5c0-7.4-6-13.5-13.5-13.5C11.9,14.1,5.9,20.1,5.9,27.6L5.9,27.6z M56.8,67.2
	c1.7,0,3-1.4,3-3V42.7c-1.3,0.3-2.7,0.5-4.1,0.5c-4.5,0-8.5-1.9-11.3-4.9H30.7c-2.9,3-6.9,4.9-11.3,4.9c-0.8,0-1.7-0.1-2.5-0.2v21.1
	c0,1.7,1.4,3,3,3H56.8L56.8,67.2z M73.5,60.7V44.9L62,47.3v11L73.5,60.7L73.5,60.7z M41.7,60.4c0.5,0,0.8,0.4,0.8,0.8v1.1
	c0,0.5-0.4,0.8-0.8,0.8h-6.5c-0.5,0-0.8-0.4-0.8-0.8v-1.1c0-0.5,0.4-0.8,0.8-0.8H41.7L41.7,60.4z M29.4,59.7c1.1,0,2.1,0.9,2.1,2.1
	c0,1.1-0.9,2.1-2.1,2.1c-1.1,0-2.1-0.9-2.1-2.1C27.3,60.7,28.2,59.7,29.4,59.7L29.4,59.7z M22.2,59.7c1.1,0,2.1,0.9,2.1,2.1
	c0,1.1-0.9,2.1-2.1,2.1c-1.1,0-2.1-0.9-2.1-2.1C20.1,60.7,21,59.7,22.2,59.7L22.2,59.7z M55.8,33.3c-3.2,0-5.8-2.6-5.8-5.8
	c0-3.2,2.6-5.8,5.8-5.8c3.2,0,5.8,2.6,5.8,5.8C61.6,30.8,59,33.3,55.8,33.3L55.8,33.3z M55.8,24c-2,0-3.6,1.6-3.6,3.6
	s1.6,3.6,3.6,3.6c2,0,3.6-1.6,3.6-3.6S57.7,24,55.8,24L55.8,24z M25.1,27.6c0,3.2-2.6,5.8-5.8,5.8c-3.2,0-5.8-2.6-5.8-5.8
	c0-3.2,2.6-5.8,5.8-5.8C22.5,21.8,25.1,24.4,25.1,27.6L25.1,27.6z M15.8,27.6c0,2,1.6,3.6,3.6,3.6c2,0,3.6-1.6,3.6-3.6
	S21.3,24,19.3,24C17.4,24,15.8,25.6,15.8,27.6L15.8,27.6z"/>
</svg>
