<svg xmlns="http://www.w3.org/2000/svg" viewBox="0 0 81 81"><path fill="none" stroke="#0070BB" stroke-miterlimit="10" d="M75.3 42.7c.3.2.4.5.4.9V62c0 .3-.2.6-.4.9-.2.2-.4.2-.7.2h-.2L62 60.5v3.6c0 2.9-2.3 5.2-5.2 5.2H19.9c-2.9 0-5.2-2.3-5.2-5.2V42.5c-6.4-2-11-8-11-15 0-8.6 7-15.7 15.7-15.7 8.6 0 15.7 7 15.7 15.7 0 3.2-1 6.1-2.6 8.6h10.2c-1.6-2.5-2.6-5.4-2.6-8.6 0-8.6 7-15.7 15.7-15.7s15.7 7 15.7 15.7c0 6.4-3.9 11.9-9.4 14.4V45l12.3-2.6c.3 0 .6.1.9.3zM55.8 14.1c-7.4 0-13.5 6-13.5 13.5 0 7.4 6 13.5 13.5 13.5 7.4 0 13.5-6 13.5-13.5-.1-7.5-6.1-13.5-13.5-13.5zM5.9 27.6c0 7.4 6 13.5 13.5 13.5 7.4 0 13.5-6 13.5-13.5 0-7.4-6-13.5-13.5-13.5s-13.5 6-13.5 13.5zm50.9 39.6c1.7 0 3-1.4 3-3V42.7c-1.3.3-2.7.5-4.1.5-4.5 0-8.5-1.9-11.3-4.9H30.7c-2.9 3-6.9 4.9-11.3 4.9-.8 0-1.7-.1-2.5-.2v21.1c0 1.7 1.4 3 3 3h36.9v.1zm16.7-6.5V44.9L62 47.3v11l11.5 2.4zm-31.8-.3c.5 0 .8.4.8.8v1.1c0 .5-.4.8-.8.8h-6.5c-.5 0-.8-.4-.8-.8v-1.1c0-.5.4-.8.8-.8h6.5zm-12.3-.7c1.1 0 2.1.9 2.1 2.1 0 1.1-.9 2.1-2.1 2.1-1.1 0-2.1-.9-2.1-2.1 0-1.1.9-2.1 2.1-2.1zm-7.2 0c1.1 0 2.1.9 2.1 2.1 0 1.1-.9 2.1-2.1 2.1-1.1 0-2.1-.9-2.1-2.1 0-1.1.9-2.1 2.1-2.1zm33.6-26.4c-3.2 0-5.8-2.6-5.8-5.8 0-3.2 2.6-5.8 5.8-5.8 3.2 0 5.8 2.6 5.8 5.8 0 3.3-2.6 5.8-5.8 5.8zm0-9.3c-2 0-3.6 1.6-3.6 3.6s1.6 3.6 3.6 3.6 3.6-1.6 3.6-3.6-1.7-3.6-3.6-3.6zm-30.7 3.6c0 3.2-2.6 5.8-5.8 5.8-3.2 0-5.8-2.6-5.8-5.8 0-3.2 2.6-5.8 5.8-5.8 3.2 0 5.8 2.6 5.8 5.8zm-9.3 0c0 2 1.6 3.6 3.6 3.6s3.6-1.6 3.6-3.6-1.7-3.6-3.7-3.6c-1.9 0-3.5 1.6-3.5 3.6z"/></svg>