<?xml version="1.0" encoding="utf-8"?>
<!-- Generator: Adobe Illustrator 19.1.0, SVG Export Plug-In . SVG Version: 6.00 Build 0)  -->
<!DOCTYPE svg PUBLIC "-//W3C//DTD SVG 1.1//EN" "http://www.w3.org/Graphics/SVG/1.1/DTD/svg11.dtd">
<svg version="1.1" id="Layer_1" xmlns="http://www.w3.org/2000/svg" xmlns:xlink="http://www.w3.org/1999/xlink" x="0px" y="0px"
	 viewBox="0 0 81 81" enable-background="new 0 0 81 81" xml:space="preserve">
<path fill="#231F20" d="M57.8,58.3c-3.8,0-6.8,3.1-6.8,6.8c0,3.8,3.1,6.8,6.8,6.8c3.8,0,6.8-3.1,6.8-6.8
	C64.6,61.3,61.6,58.3,57.8,58.3L57.8,58.3z M49,63.3c0.8-4.1,4.5-7.2,8.9-7.2c4.4,0,8,3.1,8.9,7.2h9c0.3,0,0.6-0.3,0.6-0.6v-2.1
	c0-0.3-0.3-0.6-0.6-0.6h-2.4c-0.6,0-1.1-0.5-1.1-1.1v-6.7c0-1.3-1.1-2.4-2.4-2.4h-5.2c-0.5,0-0.9-0.3-1.1-0.8l-4-12.8
	c-0.5-1.5-2.1-2.7-3.5-2.7h-6h-4.4c-1.3,0-2.4,1.1-2.4,2.4v10.9c0,0.6-0.5,1.1-1.1,1.1H13.5c-1.3,0-2.4,1.1-2.4,2.4v13.1h5.6
	c0.8-4.1,4.5-7.2,8.9-7.2s8,3.1,8.9,7.2H49L49,63.3z M25.6,58.3c-3.8,0-6.8,3.1-6.8,6.8c0,3.8,3.1,6.8,6.8,6.8
	c3.8,0,6.8-3.1,6.8-6.8C32.4,61.3,29.3,58.3,25.6,58.3L25.6,58.3z M48.9,31.2v-1.7c0-1.3-1.1-2.4-2.4-2.4H7c-1.3,0-2.4,1.1-2.4,2.4
	v24.9c0,1.3,1.1,2.4,2.4,2.4H9l0-6.7c0-2.5,2.1-4.6,4.6-4.6h27.5v-9.8c0-2.5,2.1-4.6,4.6-4.6H48.9L48.9,31.2z M36.9,22.2
	c0.2,0.2,0.3,0.5,0.3,0.8c0,0.3-0.1,0.6-0.3,0.8c-0.4,0.4-0.9,0.9-1.4,1.2h11.1c2.5,0,4.6,2.1,4.6,4.6v1.7h4.9
	c2.4,0,4.9,1.9,5.6,4.2l3.8,12.1h4.4c2.5,0,4.6,2.1,4.6,4.6v5.6h1.3c1.6,0,2.8,1.3,2.8,2.8v2.1c0,1.6-1.3,2.8-2.8,2.8h-8.9
	c-0.2,4.8-4.2,8.6-9,8.6c-4.8,0-8.8-3.8-9-8.6H34.6c-0.2,4.8-4.2,8.6-9,8.6c-4.8,0-8.8-3.8-9-8.6h-6.5C9.5,65.5,9,65,9,64.4L9,59H7
	c-2.5,0-4.6-2.1-4.6-4.6V29.5c0-2.5,2.1-4.6,4.6-4.6h14.8c-0.5-0.4-1-0.8-1.4-1.2c-2.2-2.2-3.4-5.1-3.4-8.3c0-3.1,1.2-6.1,3.4-8.3
	c0.4-0.4,1.1-0.4,1.6,0l6.7,6.7l2.4-2.4c-0.3-0.9-0.1-1.8,0.6-2.5c1-1,2.5-1,3.5,0c1,1,1,2.5,0,3.5c-0.7,0.7-1.7,0.9-2.5,0.6
	l-2.4,2.4L36.9,22.2L36.9,22.2z M28.7,24.9c2.2,0,4.2-0.7,5.9-2L21.2,9.6c-1.3,1.7-2,3.7-2,5.9c0,2.5,1,4.9,2.8,6.7
	S26.1,24.9,28.7,24.9L28.7,24.9z M57.8,63.8c-0.7,0-1.3,0.6-1.3,1.3c0,0.7,0.6,1.3,1.3,1.3c0.7,0,1.3-0.6,1.3-1.3
	C59.2,64.4,58.6,63.8,57.8,63.8L57.8,63.8z M57.8,68.7c-2,0-3.5-1.6-3.5-3.5c0-2,1.6-3.5,3.5-3.5c2,0,3.5,1.6,3.5,3.5
	C61.4,67.1,59.8,68.7,57.8,68.7L57.8,68.7z M47.5,45.6h10.7l-2.6-8.4c0-0.1-0.2-0.2-0.3-0.3h-7.8V45.6L47.5,45.6z M59.7,47.8H46.3
	c-0.6,0-1.1-0.5-1.1-1.1V35.8c0-0.6,0.5-1.1,1.1-1.1h9c0.8,0,2,0.8,2.3,1.8l3.1,9.8c0.1,0.3,0,0.7-0.2,1
	C60.4,47.6,60,47.8,59.7,47.8L59.7,47.8z M25.6,63.8c-0.7,0-1.3,0.6-1.3,1.3c0,0.7,0.6,1.3,1.3,1.3c0.7,0,1.3-0.6,1.3-1.3
	C26.9,64.4,26.3,63.8,25.6,63.8L25.6,63.8z M25.6,68.7c-2,0-3.5-1.6-3.5-3.5c0-2,1.6-3.5,3.5-3.5s3.5,1.6,3.5,3.5
	C29.1,67.1,27.5,68.7,25.6,68.7L25.6,68.7z"/>
</svg>
