<svg xmlns="http://www.w3.org/2000/svg" viewBox="0 0 81 81"><path fill="#231F20" d="M57.8 58.3c-3.8 0-6.8 3.1-6.8 6.8 0 3.8 3.1 6.8 6.8 6.8 3.8 0 6.8-3.1 6.8-6.8 0-3.8-3-6.8-6.8-6.8zm-8.8 5c.8-4.1 4.5-7.2 8.9-7.2s8 3.1 8.9 7.2h9c.3 0 .6-.3.6-.6v-2.1c0-.3-.3-.6-.6-.6h-2.4c-.6 0-1.1-.5-1.1-1.1v-6.7c0-1.3-1.1-2.4-2.4-2.4h-5.2c-.5 0-.9-.3-1.1-.8l-4-12.8c-.5-1.5-2.1-2.7-3.5-2.7H45.7c-1.3 0-2.4 1.1-2.4 2.4v10.9c0 .6-.5 1.1-1.1 1.1H13.5c-1.3 0-2.4 1.1-2.4 2.4v13.1h5.6c.8-4.1 4.5-7.2 8.9-7.2s8 3.1 8.9 7.2H49v-.1zm-23.4-5c-3.8 0-6.8 3.1-6.8 6.8 0 3.8 3.1 6.8 6.8 6.8 3.8 0 6.8-3.1 6.8-6.8 0-3.8-3.1-6.8-6.8-6.8zm23.3-27.1v-1.7c0-1.3-1.1-2.4-2.4-2.4H7c-1.3 0-2.4 1.1-2.4 2.4v24.9c0 1.3 1.1 2.4 2.4 2.4h2v-6.7c0-2.5 2.1-4.6 4.6-4.6h27.5v-9.8c0-2.5 2.1-4.6 4.6-4.6h3.2v.1zm-12-9c.2.2.3.5.3.8 0 .3-.1.6-.3.8-.4.4-.9.9-1.4 1.2h11.1c2.5 0 4.6 2.1 4.6 4.6v1.7h4.9c2.4 0 4.9 1.9 5.6 4.2l3.8 12.1h4.4c2.5 0 4.6 2.1 4.6 4.6v5.6h1.3c1.6 0 2.8 1.3 2.8 2.8v2.1c0 1.6-1.3 2.8-2.8 2.8h-8.9c-.2 4.8-4.2 8.6-9 8.6s-8.8-3.8-9-8.6H34.6c-.2 4.8-4.2 8.6-9 8.6s-8.8-3.8-9-8.6h-6.5c-.6 0-1.1-.5-1.1-1.1V59H7c-2.5 0-4.6-2.1-4.6-4.6V29.5c0-2.5 2.1-4.6 4.6-4.6h14.8c-.5-.4-1-.8-1.4-1.2-2.2-2.2-3.4-5.1-3.4-8.3 0-3.1 1.2-6.1 3.4-8.3.4-.4 1.1-.4 1.6 0l6.7 6.7 2.4-2.4c-.3-.9-.1-1.8.6-2.5 1-1 2.5-1 3.5 0s1 2.5 0 3.5c-.7.7-1.7.9-2.5.6l-2.4 2.4 6.6 6.8zm-8.2 2.7c2.2 0 4.2-.7 5.9-2L21.2 9.6c-1.3 1.7-2 3.7-2 5.9 0 2.5 1 4.9 2.8 6.7s4.1 2.7 6.7 2.7zm29.1 38.9c-.7 0-1.3.6-1.3 1.3 0 .7.6 1.3 1.3 1.3.7 0 1.3-.6 1.3-1.3.1-.7-.5-1.3-1.3-1.3zm0 4.9c-2 0-3.5-1.6-3.5-3.5 0-2 1.6-3.5 3.5-3.5 2 0 3.5 1.6 3.5 3.5.1 1.9-1.5 3.5-3.5 3.5zM47.5 45.6h10.7l-2.6-8.4c0-.1-.2-.2-.3-.3h-7.8v8.7zm12.2 2.2H46.3c-.6 0-1.1-.5-1.1-1.1V35.8c0-.6.5-1.1 1.1-1.1h9c.8 0 2 .8 2.3 1.8l3.1 9.8c.1.3 0 .7-.2 1-.1.3-.5.5-.8.5zm-34.1 16c-.7 0-1.3.6-1.3 1.3 0 .7.6 1.3 1.3 1.3.7 0 1.3-.6 1.3-1.3 0-.7-.6-1.3-1.3-1.3zm0 4.9c-2 0-3.5-1.6-3.5-3.5 0-2 1.6-3.5 3.5-3.5s3.5 1.6 3.5 3.5-1.6 3.5-3.5 3.5z"/></svg>